<?xml version="1.0" encoding="UTF-8"?>
<!-- Generator: Adobe Illustrator 16.0.0, SVG Export Plug-In . SVG Version: 6.00 Build 0)  -->
<svg xmlns="http://www.w3.org/2000/svg" xmlns:xlink="http://www.w3.org/1999/xlink" version="1.1" id="Layer_1" x="0px" y="0px" width="725.957px" height="133.683px" viewBox="0 0 725.957 133.683" xml:space="preserve">
<g>
	<path d="M199.419,73.265c-1.838,5.791-4.628,10.779-8.367,14.967s-8.428,7.422-14.067,9.699c-5.639,2.279-12.228,3.42-19.766,3.42   c-7.294,0-13.638-1.016-19.032-3.049c-5.394-2.033-9.869-4.99-13.422-8.871c-3.556-3.879-6.191-8.652-7.908-14.318   c-1.716-5.666-2.575-12.133-2.575-19.401c0-7.022,0.935-13.442,2.805-19.264c1.869-5.819,4.672-10.81,8.413-14.966   c3.737-4.158,8.412-7.376,14.02-9.655c5.609-2.278,12.182-3.418,19.722-3.418c7.355,0,13.728,1.002,19.124,3.003   c5.392,2.002,9.851,4.943,13.376,8.823c3.523,3.88,6.144,8.654,7.862,14.319c1.714,5.667,2.573,12.165,2.573,19.494   C202.177,61.069,201.257,67.475,199.419,73.265L199.419,73.265z M177.4,43.746c-0.644-3.418-1.732-6.389-3.264-8.915   c-1.533-2.525-3.571-4.497-6.114-5.913c-2.544-1.417-5.746-2.125-9.608-2.125c-3.432,0-6.436,0.633-9.009,1.894   c-2.575,1.264-4.689,3.112-6.344,5.543c-1.655,2.434-2.897,5.359-3.724,8.777c-0.828,3.418-1.242,7.314-1.242,11.687   c0,4.064,0.336,7.808,1.011,11.226c0.674,3.419,1.762,6.39,3.264,8.915c1.501,2.525,3.539,4.48,6.114,5.867   c2.575,1.385,5.76,2.078,9.562,2.078c3.494,0,6.528-0.631,9.102-1.895c2.575-1.262,4.689-3.096,6.344-5.496   c1.655-2.402,2.88-5.313,3.678-8.731c0.796-3.418,1.196-7.313,1.196-11.687C178.366,50.907,178.043,47.164,177.4,43.746   L177.4,43.746z M286.495,97.7c-0.307,0.463-0.843,0.848-1.609,1.154c-0.766,0.311-1.777,0.539-3.034,0.695   c-1.257,0.152-2.835,0.229-4.735,0.229c-2.022,0-3.663-0.076-4.918-0.229c-1.257-0.156-2.253-0.385-2.988-0.695   c-0.735-0.307-1.257-0.691-1.563-1.154c-0.307-0.461-0.459-1-0.459-1.617v-9.516c-4.537,4.928-9.148,8.625-13.837,11.088   s-9.547,3.695-14.572,3.695c-5.641,0-10.375-0.926-14.204-2.771c-3.832-1.848-6.928-4.373-9.287-7.576   c-2.36-3.201-4.045-6.914-5.057-11.133c-1.011-4.219-1.516-9.469-1.516-15.752V13.674c0-0.614,0.168-1.154,0.505-1.616   c0.336-0.462,0.949-0.846,1.838-1.155c0.888-0.307,2.083-0.539,3.586-0.692c1.501-0.153,3.356-0.231,5.563-0.231   c2.267,0,4.137,0.079,5.607,0.231c1.472,0.154,2.651,0.386,3.54,0.692c0.888,0.309,1.517,0.693,1.884,1.155   c0.367,0.462,0.552,1.002,0.552,1.616v46.564c0,4.312,0.276,7.608,0.827,9.886c0.552,2.279,1.394,4.234,2.529,5.867   c1.133,1.633,2.575,2.895,4.321,3.787s3.783,1.34,6.114,1.34c2.942,0,5.899-1.078,8.872-3.234c2.973-2.156,6.145-5.297,9.515-9.424   V13.674c0-0.614,0.169-1.154,0.506-1.616c0.336-0.462,0.949-0.846,1.838-1.155c0.888-0.307,2.07-0.539,3.541-0.692   c1.47-0.153,3.339-0.231,5.608-0.231c2.267,0,4.137,0.079,5.607,0.231c1.472,0.154,2.635,0.386,3.495,0.692   c0.857,0.309,1.471,0.693,1.838,1.155c0.368,0.462,0.552,1.002,0.552,1.616v82.409C286.956,96.7,286.802,97.239,286.495,97.7   L286.495,97.7z M376.698,97.7c-0.367,0.463-0.982,0.848-1.84,1.154c-0.857,0.311-2.037,0.539-3.537,0.695   c-1.504,0.152-3.357,0.229-5.564,0.229c-2.268,0-4.151-0.076-5.652-0.229c-1.504-0.156-2.683-0.385-3.541-0.695   c-0.859-0.307-1.471-0.691-1.838-1.154c-0.369-0.461-0.552-1-0.552-1.617V49.059c0-4.003-0.292-7.145-0.874-9.424   c-0.583-2.278-1.425-4.234-2.528-5.867c-1.103-1.631-2.529-2.894-4.275-3.787c-1.747-0.894-3.785-1.34-6.114-1.34   c-2.942,0-5.916,1.078-8.917,3.234c-3.005,2.156-6.13,5.298-9.378,9.424v54.784c0,0.617-0.185,1.156-0.552,1.617   c-0.368,0.463-0.997,0.848-1.884,1.154c-0.889,0.311-2.07,0.539-3.54,0.695c-1.471,0.152-3.342,0.229-5.609,0.229   c-2.268,0-4.137-0.076-5.607-0.229c-1.472-0.156-2.652-0.385-3.541-0.695c-0.889-0.307-1.516-0.691-1.884-1.154   c-0.368-0.461-0.552-1-0.552-1.617V13.674c0-0.614,0.153-1.154,0.459-1.616c0.307-0.462,0.859-0.846,1.655-1.155   c0.796-0.307,1.823-0.539,3.08-0.692c1.255-0.153,2.834-0.231,4.734-0.231c1.962,0,3.586,0.079,4.874,0.231   c1.288,0.154,2.282,0.386,2.988,0.692c0.704,0.309,1.21,0.693,1.516,1.155c0.307,0.462,0.461,1.002,0.461,1.616v9.517   c4.535-4.928,9.147-8.624,13.836-11.087c4.689-2.462,9.575-3.696,14.664-3.696c5.577,0,10.281,0.924,14.113,2.772   c3.831,1.848,6.925,4.359,9.286,7.53c2.359,3.172,4.059,6.882,5.104,11.133c1.039,4.249,1.561,9.363,1.561,15.336v50.904   C377.249,96.7,377.067,97.239,376.698,97.7L376.698,97.7z"></path>
	<path fill="#059695" d="M405.596,88.634c-5.641,13.275-18.109,16.111-26.719,8.205c-5.492-5.221-9.797-14.021-9.797-24.762   c0-14.917,12.172-13.873,9.797-1.939c-0.891,4.773-2.969,12.381-1.484,16.707c5.344,14.619,19.148,12.381,21.227,1.49   c2.82-15.064-18.852-28.937-18.852-45.644c0-7.756,8.461-17.9,8.461-8.801C388.229,51.194,412.87,71.479,405.596,88.634   L405.596,88.634z M470.319,65.664c-0.297,3.728-3.266,15.365-15.883,16.556c-1.93,5.67-4.898,10.889-9.797,14.172   c-8.164,5.518-20.338,4.176-26.869-3.133c-6.828-7.758-8.906-18.943-8.461-29.088c0.297-10.441,3.859-23.567,13.805-28.789   c7.572-4.175,18.111-2.834,24.197,3.283c7.125,7.01,9.5,18.048,9.5,27.744c0,3.729-0.445,7.757-1.188,11.636   c5.938-1.344,9.945-6.115,11.133-12.829C467.202,62.233,470.616,61.636,470.319,65.664L470.319,65.664z M435.881,37.471   c-3.563-0.746-7.719-0.15-10.541,2.236c-4.305,3.432-5.195,9.697-5.492,14.917c-0.297,5.519-0.297,11.039-0.148,16.558   c0,9.547,0.297,24.164,13.064,24.314c10.242,0.299,12.766-8.504,13.508-17.453c-2.375-4.773-2.523-13.127,0.148-18.049   C446.42,50.746,445.53,39.409,435.881,37.471L435.881,37.471z M478.633,100.269c-2.375,0-4.453-0.744-6.234-2.236   c-3.711-2.984-5.344-8.055-6.68-12.381c-2.523-9.846-3.117-20.286-3.563-30.43c-0.445-10.74-0.445-21.48,0-32.219   c0.297-5.222,0.594-10.442,1.039-15.662c0.148-2.686-0.148-5.818,2.82-6.862c1.781-0.746,3.859-0.598,5.492,0.298   c2.82,1.342,2.227,4.027,2.227,6.563v7.756c-0.148,9.545-0.594,19.243-0.742,28.789c-0.297,8.354-0.594,16.557-0.445,24.911   c0.148,5.369,0.148,11.039,0.891,16.408c0.594,3.131,1.188,10.143,5.344,10.441c5.492,0.447,8.758-9.398,8.758-30.28   c0-2.984,3.414-3.581,3.563,0.447C491.399,75.507,491.844,100.269,478.633,100.269L478.633,100.269z M529.401,100.12   c-3.711,0.598-6.828-1.939-8.609-4.773c-1.781-2.684-2.82-5.816-3.563-9.1c-1.633,7.16-5.047,13.426-12.617,14.021   c-24.492,2.09-22.266-32.965-21.969-49.074l0.297-10.442c0-2.386-0.297-5.37,1.484-7.309c1.336-1.64,3.563-2.236,5.492-1.492   c2.523,0.747,3.414,3.282,3.563,5.668l0.297,9.249c0.148,8.055,0,16.109-0.148,24.166c-0.148,8.203-1.336,24.313,10.391,24.313   c4.305,0,6.68-3.281,8.164-7.012c1.781-5.07,2.523-10.889,2.969-16.258c-0.594-5.967-0.742-12.082-0.594-18.049   c0-4.326,0.297-8.652,0.594-12.978c0.148-2.834-0.148-6.265,2.82-7.756c1.781-0.895,3.859-0.747,5.492,0.148   c1.633,0.896,2.227,2.237,2.227,4.028c0.148,2.685,0.297,5.369,0.297,8.203c0,4.773,0,9.697-0.148,14.619   c-0.148,5.072-0.297,10.143-0.297,15.213c0,3.879,0,7.906,0.297,11.785c0.445,3.729,0.891,8.354,3.414,8.354   c5.641,0,10.242-11.783,10.242-30.28c0-2.984,3.563-3.581,3.563,0.447C543.057,83.116,540.682,99.075,529.401,100.12   L529.401,100.12z M554.639,100.269c-20.336,0-19.891-25.357-19.891-45.047c0-7.607-0.297-15.364-0.297-23.12   c-4.156-0.448-7.422-0.895-8.164-0.895c-2.08,0-2.08-3.133,0.445-3.133c2.82,0,5.492-0.15,7.867-0.298c0-1.493,0-3.134,0.148-4.773   c0.297-5.222,0.594-10.442,1.039-15.662c0.148-2.686-0.148-5.818,2.82-6.862c1.781-0.746,3.859-0.598,5.492,0.298   c2.82,1.342,2.227,4.027,2.227,6.563v7.756l-0.297,11.187c5.641-1.341,9.945-2.982,14.398-4.773   c8.313-3.281,13.359,3.581,2.078,8.652c-4.453,2.088-10.688,2.536-16.773,2.536c-0.148,3.729-0.148,7.458-0.148,11.187   c-0.297,8.354-0.594,16.557-0.445,24.911c0.148,5.369,0.148,11.039,0.891,16.408c1.039,7.607,4.602,10.441,8.758,10.441   c5.789,0,12.766-9.398,12.766-30.28c0-2.984,3.414-3.581,3.563,0.447C571.413,75.507,569.038,100.269,554.639,100.269   L554.639,100.269z M577.352,100.12c-3.711,0.598-6.828-1.939-8.609-4.773c-2.82-4.475-3.859-10.143-4.75-15.363   c-1.188-8.504-1.633-17.304-1.484-25.955c0-4.326,0.297-8.652,0.594-12.978c0.148-2.834-0.148-6.265,2.82-7.756   c1.781-0.895,3.859-0.747,5.492,0.148c1.633,0.896,2.227,2.237,2.227,4.028c0.148,2.685,0.297,5.369,0.297,8.203   c0,4.773,0,9.697-0.148,14.619c-0.148,5.072-0.297,10.143-0.297,15.213c0,3.879,0,7.906,0.297,11.785   c0.445,3.729,0.891,8.354,3.414,8.354c5.641,0,10.242-11.783,10.242-30.28c0-2.984,3.563-3.581,3.563,0.447   C591.008,83.116,588.633,99.075,577.352,100.12L577.352,100.12z M574.383,15.842c-0.594,2.834-3.117,4.624-5.789,4.624   c-3.711,0-6.531-3.581-5.789-7.31l0.297-0.895c1.633-7.608,13.211-4.922,11.578,2.685L574.383,15.842L574.383,15.842z    M643.262,65.664c-0.297,3.728-3.266,15.365-15.883,16.556c-1.93,5.67-4.898,10.889-9.797,14.172   c-8.164,5.518-20.338,4.176-26.869-3.133c-6.828-7.758-8.906-18.943-8.461-29.088c0.297-10.441,3.859-23.567,13.805-28.789   c7.57-4.175,18.111-2.834,24.197,3.283c7.125,7.01,9.5,18.048,9.5,27.744c0,3.729-0.445,7.757-1.188,11.636   c5.938-1.344,9.945-6.115,11.133-12.829C640.145,62.233,643.559,61.636,643.262,65.664L643.262,65.664z M608.825,37.471   c-3.564-0.746-7.721-0.15-10.541,2.236c-4.305,3.432-5.195,9.697-5.492,14.917c-0.297,5.519-0.297,11.039-0.148,16.558   c0,9.547,0.297,24.164,13.064,24.314c10.24,0.299,12.766-8.504,13.508-17.453c-2.375-4.773-2.523-13.127,0.148-18.049   C619.364,50.746,618.473,39.409,608.825,37.471L608.825,37.471z M683.79,101.909c-12.32,1.193-13.656-18.047-14.102-25.953   c-0.594-7.607,0.148-15.216-0.148-22.674c-0.297-4.922-0.742-11.635-5.344-14.469c-3.563-2.088-8.164-1.64-11.281,1.194   c-3.859,3.729-5.789,9.397-7.273,14.468c-0.299,0.896-0.596,1.791-0.744,2.686c-0.148,8.651-0.594,17.452-1.039,25.956   l-0.891,13.275c-0.297,1.939-0.594,4.027-2.969,4.176c-1.484,0.15-2.227-0.598-2.672-1.789c-0.297-0.299-0.445-0.746-0.445-1.344   v-0.299c0-0.744,0-1.49-0.148-2.236c-0.891-9.248-1.188-18.646-1.484-28.043c-0.297-5.818-0.445-11.785-0.445-17.751   c0-3.132,0-6.265-0.148-9.546c0-2.536-0.148-5.072,2.375-6.563c1.781-1.193,4.008-1.045,5.789,0   c2.971,1.641,2.227,5.072,2.227,8.054v2.686c1.783-4.029,4.455-7.758,8.463-9.846c3.711-1.939,8.906-1.79,12.914-0.298   c4.898,1.939,8.016,6.563,9.797,11.337c4.156,10.442,3.414,21.777,3.711,32.667c0,5.967-0.445,19.988,3.266,19.988   c7.422,0,9.797-11.338,9.797-32.22c0-2.984,3.414-3.581,3.563,0.447C697.297,85.353,695.813,100.718,683.79,101.909L683.79,101.909   z M724.614,88.634c-5.641,13.275-18.109,16.111-26.719,8.205c-5.492-5.221-9.797-14.021-9.797-24.762   c0-14.917,12.172-13.873,9.797-1.939c-0.891,4.773-2.969,12.381-1.484,16.707c5.344,14.619,19.148,12.381,21.227,1.49   c2.82-15.064-18.852-28.937-18.852-45.644c0-7.756,8.461-17.9,8.461-8.801C707.247,51.194,731.887,71.479,724.614,88.634   L724.614,88.634z"></path>
	<path fill="#059695" d="M126.557,30.366c-2.149-5.774-5.506-10.714-10.075-14.819s-10.4-7.278-17.496-9.524   C91.889,3.78,83.365,2.658,73.413,2.658c-6.797,0-13.039,0.63-18.72,1.888c-5.684,1.259-10.877,3.038-15.581,5.336   c-4.704,2.299-8.946,5.048-12.725,8.25c-3.781,3.202-7.11,6.72-9.993,10.55c-2.883,3.832-5.37,7.895-7.463,12.191   C6.837,45.17,5.138,49.59,3.833,54.132c-1.306,4.543-2.271,9.141-2.896,13.792C0.312,72.577,0,77.147,0,81.636   c0,8.045,1.072,15.283,3.221,21.713c2.148,6.432,5.548,11.904,10.197,16.42c4.65,4.516,10.617,7.963,17.905,10.344   c7.286,2.381,16.095,3.57,26.429,3.57c4.567,0,8.769-0.219,12.602-0.656c3.834-0.438,7.179-0.943,10.033-1.52   c2.855-0.574,5.14-1.162,6.853-1.764c1.712-0.604,2.731-1.055,3.059-1.355c0.326-0.301,0.598-0.656,0.815-1.066   c0.216-0.412,0.394-0.904,0.53-1.479c0.134-0.574,0.23-1.271,0.286-2.094c0.053-0.82,0.081-1.834,0.081-3.037   c0-1.424-0.041-2.6-0.122-3.529c-0.082-0.932-0.204-1.67-0.366-2.217c-0.164-0.549-0.382-0.918-0.654-1.109   c-0.271-0.191-0.599-0.287-0.978-0.287c-0.599,0-1.713,0.246-3.345,0.738c-1.631,0.492-3.74,1.014-6.322,1.561   c-2.583,0.547-5.602,1.068-9.055,1.561c-3.454,0.492-7.273,0.738-11.46,0.738c-8.049,0-14.752-0.863-20.107-2.586   c-5.357-1.725-9.64-4.229-12.847-7.512c-3.21-3.283-5.466-7.279-6.771-11.986c-1.304-4.707-1.958-10.041-1.958-16.008   c0-3.285,0.19-6.678,0.572-10.18c0.38-3.502,0.978-7.007,1.793-10.509c0.816-3.502,1.917-6.964,3.305-10.385   c1.386-3.42,3.085-6.649,5.098-9.688c2.012-3.037,4.377-5.842,7.096-8.415c2.719-2.572,5.818-4.803,9.3-6.691   c3.479-1.888,7.408-3.365,11.787-4.432c4.376-1.068,9.231-1.601,14.561-1.601c7.939,0,14.479,0.861,19.618,2.586   c5.138,1.724,9.217,4.077,12.235,7.06c3.019,2.984,5.125,6.432,6.322,10.345c1.196,3.914,1.794,8.059,1.794,12.437   c0,2.41-0.122,4.914-0.366,7.512c-0.246,2.6-0.625,5.172-1.142,7.717c-0.518,2.545-1.184,4.98-1.999,7.307   c-0.816,2.326-1.809,4.379-2.977,6.156c-1.169,1.779-2.543,3.189-4.119,4.229c-1.579,1.039-3.318,1.561-5.222,1.561   c-2.935,0-4.908-0.945-5.914-2.834c-1.005-1.887-1.129-4.855-0.366-8.906l7.015-36.697c0.053-0.493,0-0.916-0.164-1.272   c-0.164-0.356-0.518-0.657-1.06-0.903c-0.545-0.247-1.293-0.438-2.243-0.576c-0.953-0.136-2.135-0.206-3.548-0.206   c-2.829,0-4.8,0.247-5.914,0.74c-1.116,0.492-1.783,1.231-1.999,2.217l-1.386,6.322c-1.523-1.916-2.977-3.531-4.364-4.845   c-1.387-1.313-2.815-2.38-4.282-3.202c-1.468-0.821-2.991-1.422-4.568-1.806c-1.578-0.381-3.291-0.574-5.139-0.574   c-4.079,0-7.681,0.739-10.808,2.217c-3.128,1.478-5.86,3.435-8.197,5.87c-2.339,2.436-4.298,5.201-5.874,8.292   c-1.577,3.092-2.842,6.294-3.793,9.605c-0.953,3.312-1.631,6.555-2.039,9.729c-0.408,3.174-0.612,6.047-0.612,8.619   c0,1.971,0.122,3.914,0.366,5.83c0.246,1.916,0.666,3.75,1.265,5.5c0.598,1.752,1.372,3.354,2.325,4.803   c0.95,1.449,2.147,2.723,3.589,3.816c1.44,1.096,3.141,1.957,5.098,2.588c1.958,0.629,4.213,0.943,6.77,0.943   c2.012,0,3.997-0.219,5.954-0.656c1.959-0.439,3.929-1.15,5.914-2.135c1.985-0.986,3.998-2.23,6.038-3.736   c2.039-1.504,4.119-3.352,6.24-5.541c0.542,1.971,1.346,3.709,2.405,5.213c1.062,1.506,2.407,2.764,4.039,3.777   c1.631,1.012,3.535,1.777,5.71,2.299c2.174,0.52,4.595,0.779,7.26,0.779c4.458,0,8.456-0.697,11.992-2.094   c3.533-1.396,6.647-3.297,9.339-5.705s4.989-5.254,6.894-8.537c1.902-3.285,3.467-6.801,4.69-10.551   c1.223-3.748,2.105-7.662,2.651-11.74c0.542-4.077,0.816-8.114,0.816-12.109C129.779,42.557,128.704,36.141,126.557,30.366   L126.557,30.366z M71.619,75.065c-1.687,1.807-3.223,3.354-4.61,4.641c-1.386,1.285-2.691,2.326-3.915,3.119   s-2.393,1.367-3.507,1.723c-1.116,0.357-2.19,0.535-3.223,0.535c-2.829,0-4.84-0.957-6.036-2.873   c-1.197-1.916-1.795-4.516-1.795-7.799c0-1.424,0.108-3.08,0.326-4.967c0.218-1.891,0.584-3.818,1.102-5.79   c0.516-1.97,1.169-3.898,1.958-5.788c0.788-1.888,1.755-3.583,2.896-5.09c1.142-1.503,2.46-2.709,3.957-3.611   c1.494-0.903,3.193-1.355,5.098-1.355c2.228,0,4.227,0.767,5.995,2.299c1.767,1.533,3.467,3.805,5.098,6.814L71.619,75.065   L71.619,75.065z"></path>
	<path fill="#059695" d="M231.179,115.04v14.783h-2.523V115.04h-3.724v-2.496h9.995v2.496H231.179L231.179,115.04z M249.49,129.823   v-7.344h-7.522v7.344h-2.499v-17.279h2.499v7.439h7.522v-7.439h2.523v17.279H249.49L249.49,129.823z M262.983,115.04h-1.039   c-0.273,0-0.568,0.104-0.882,0.311c-0.314,0.209-0.527,0.584-0.64,1.129v0.455v2.928h8.842v2.496h-8.842v2.316v1.084   c0,0.146,0.04,0.313,0.121,0.506c0.223,0.451,0.495,0.74,0.816,0.869c0.32,0.129,0.929,0.193,1.827,0.193h6.032v2.496h-6.705   c-1.49,0-2.627-0.393-3.413-1.176c-0.785-0.785-1.178-1.936-1.178-3.457v-8.326c0-1.473,0.401-2.563,1.203-3.266   c0.801-0.703,2.083-1.055,3.844-1.055h6.319v2.496H262.983L262.983,115.04z M294.823,129.39c-0.322,0.162-0.623,0.273-0.904,0.336   c-0.282,0.066-0.559,0.098-0.833,0.098h-8.371v-17.279h8.819c1.042,0,1.906,0.367,2.596,1.102c0.688,0.738,1.033,1.705,1.033,2.906   v8.879v0.695C296.938,127.679,296.158,128.767,294.823,129.39L294.823,129.39z M294.664,117.007v-0.359   c-0.064-0.607-0.221-1.029-0.469-1.26c-0.25-0.232-0.688-0.348-1.313-0.348h-5.666v12.287h5.718c1.154,0,1.73-0.695,1.73-2.088   V117.007L294.664,117.007z M308.134,115.04h-1.038c-0.275,0-0.569,0.104-0.882,0.311c-0.315,0.209-0.527,0.584-0.641,1.129v0.455   v2.928h8.844v2.496h-8.844v2.316v1.084c0,0.146,0.041,0.313,0.121,0.506c0.225,0.451,0.497,0.74,0.817,0.869   s0.928,0.193,1.826,0.193h6.032v2.496h-6.705c-1.49,0-2.627-0.393-3.411-1.176c-0.786-0.785-1.178-1.936-1.178-3.457v-8.326   c0-1.473,0.4-2.563,1.202-3.266c0.8-0.703,2.082-1.055,3.844-1.055h6.32v2.496H308.134L308.134,115.04z M323.527,115.04h-0.241   c-0.45,0.063-0.759,0.168-0.927,0.313c-0.169,0.145-0.286,0.41-0.35,0.795v0.314v1.713v0.336c0.112,0.982,0.651,1.473,1.615,1.473   h3.035c0.788,0,1.503,0.184,2.145,0.551c1.189,0.674,1.784,1.592,1.784,2.76v2.736c0,1.313-0.537,2.336-1.606,3.072   c-0.688,0.48-1.456,0.721-2.303,0.721h-7.168v-2.496h6.877h0.264c0.479-0.049,0.833-0.223,1.065-0.521   c0.232-0.297,0.349-0.602,0.349-0.908v-2.205c0-0.258-0.064-0.484-0.193-0.678c-0.128-0.242-0.285-0.416-0.468-0.521   c-0.185-0.105-0.485-0.182-0.901-0.23h-0.265h-2.594h-0.721c-1.042-0.16-1.87-0.566-2.488-1.219   c-0.616-0.65-0.924-1.402-0.924-2.256v-2.193c0-1.816,0.712-3.063,2.138-3.738c0.257-0.113,0.524-0.191,0.805-0.24   s0.686-0.072,1.214-0.072h7.017v2.496H323.527L323.527,115.04z M336.114,129.823v-17.279h2.5v17.279H336.114L336.114,129.823z    M354.401,119.983h2.499v5.303c0,0.961-0.128,1.697-0.384,2.209c-0.417,0.848-0.925,1.447-1.526,1.799   c-0.601,0.354-1.414,0.529-2.438,0.529h-3.46c-0.481,0-0.885-0.031-1.214-0.098c-0.329-0.063-0.653-0.168-0.973-0.311   c-0.85-0.416-1.458-0.939-1.827-1.572c-0.369-0.631-0.552-1.459-0.552-2.484v-8.279c0-3.025,1.537-4.535,4.612-4.535h6.633v2.496   h-6.848h-0.313c-0.609,0.08-1.025,0.248-1.249,0.504c-0.225,0.258-0.337,0.705-0.337,1.348v8.607v0.361   c0.129,0.834,0.574,1.322,1.334,1.467h0.68h3.518c1.083,0,1.699-0.504,1.845-1.514v-0.264V119.983L354.401,119.983z    M374.418,129.302c-0.365,0.424-0.836,0.668-1.408,0.73c-0.064,0.016-0.121,0.023-0.168,0.023c-0.08,0-0.137,0-0.168,0   c-0.924,0-1.633-0.584-2.127-1.754l-5.238-12.469v13.99h-2.499v-14.855c0-1.713,0.688-2.568,2.067-2.568c0.111,0,0.232,0,0.361,0   c0.047,0,0.219,0.035,0.516,0.107c0.295,0.072,0.564,0.232,0.805,0.48s0.465,0.627,0.672,1.139l5.215,12.666v-14.248h2.523v15.209   C374.969,128.36,374.786,128.878,374.418,129.302L374.418,129.302z M398.518,128.575c-0.193,0.527-0.43,0.904-0.709,1.127   c-0.281,0.225-0.66,0.336-1.143,0.336c-0.48,0-0.859-0.107-1.141-0.322c-0.279-0.217-0.516-0.598-0.709-1.141l-5.822-16.031   l2.666,0.002l4.994,13.906l5.02-13.906l2.658-0.002L398.518,128.575L398.518,128.575z M413.573,115.04h-1.039   c-0.273,0-0.566,0.104-0.881,0.311c-0.314,0.209-0.527,0.584-0.641,1.129v0.455v2.928h8.844v2.496h-8.844v2.316v1.084   c0,0.146,0.041,0.313,0.121,0.506c0.223,0.451,0.496,0.74,0.816,0.869s0.928,0.193,1.826,0.193h6.031v2.496h-6.703   c-1.49,0-2.629-0.393-3.412-1.176c-0.785-0.785-1.178-1.936-1.178-3.457v-8.326c0-1.473,0.4-2.563,1.201-3.266   s2.082-1.055,3.844-1.055h6.32v2.496H413.573L413.573,115.04z M437.063,129.302c-0.367,0.424-0.836,0.668-1.41,0.73   c-0.063,0.016-0.121,0.023-0.168,0.023c-0.078,0-0.135,0-0.166,0c-0.926,0-1.635-0.584-2.129-1.754l-5.236-12.469v13.99h-2.5   v-14.855c0-1.713,0.689-2.568,2.068-2.568c0.109,0,0.23,0,0.359,0c0.047,0,0.219,0.035,0.516,0.107s0.566,0.232,0.805,0.48   c0.242,0.248,0.465,0.627,0.674,1.139l5.215,12.666v-14.248h2.523v15.209C437.614,128.36,437.428,128.878,437.063,129.302   L437.063,129.302z M448.403,115.04v14.783h-2.523V115.04h-3.725v-2.496h9.996v2.496H448.403L448.403,115.04z M468.372,127.999   c-0.434,0.672-1.059,1.176-1.875,1.512c-0.178,0.08-0.389,0.152-0.637,0.215c-0.25,0.066-0.533,0.098-0.854,0.098h-4.301   c-0.498,0-1.002-0.104-1.514-0.313c-1.666-0.688-2.5-2-2.5-3.938v-13.029h2.5v12.719c0,0.736,0.145,1.264,0.432,1.584   c0.289,0.32,0.777,0.48,1.465,0.48h3.533c0.674,0,1.154-0.145,1.441-0.432c0.289-0.289,0.434-0.785,0.434-1.488v-12.863h2.521   v13.029C469.018,126.519,468.801,127.327,468.372,127.999L468.372,127.999z M484.034,122.479l-2.959,0.004l6.387,7.328l-3.326,0.01   l-6.369-7.342c-0.145-0.146-0.217-0.4-0.217-0.76c0-0.162,0.025-0.342,0.072-0.537c0.16-0.654,0.617-1.053,1.369-1.199h0.432h3.773   h0.24c0.914-0.162,1.369-0.631,1.369-1.406v-1.938v-0.316c-0.111-0.742-0.529-1.172-1.252-1.283h-0.266h-5.857v14.783h-2.5v-17.279   h8.746c0.834,0,1.545,0.219,2.139,0.658c0.594,0.441,0.994,0.869,1.203,1.285c0.207,0.416,0.311,0.969,0.311,1.656v2.977   c0,0.623-0.184,1.215-0.553,1.775C486.071,121.95,485.157,122.479,484.034,122.479L484.034,122.479z M497.819,115.04h-1.039   c-0.271,0-0.566,0.104-0.881,0.311c-0.314,0.209-0.527,0.584-0.641,1.129v0.455v2.928h8.844v2.496h-8.844v2.316v1.084   c0,0.146,0.041,0.313,0.121,0.506c0.223,0.451,0.496,0.74,0.816,0.869s0.93,0.193,1.826,0.193h6.031v2.496h-6.703   c-1.49,0-2.629-0.393-3.414-1.176c-0.785-0.785-1.176-1.936-1.176-3.457v-8.326c0-1.473,0.4-2.563,1.201-3.266   s2.082-1.055,3.844-1.055h6.32v2.496H497.819L497.819,115.04z"></path>
	<polygon fill-rule="evenodd" clip-rule="evenodd" points="715.997,120.888 715.997,122.327 520.157,122.327 520.157,120.888    715.997,120.888  "></polygon>
	<path d="M110.674,115.04h-0.722l-0.457,0.096c-0.689,0.256-1.033,0.814-1.033,1.68v3.168h8.891v2.496h-8.891v7.344h-2.499v-12.721   c0-1.615,0.388-2.779,1.165-3.492c0.777-0.711,2.038-1.066,3.785-1.066h6.488v2.496H110.674L110.674,115.04z"></path>
	<path d="M133.453,113.694c-0.833-0.768-2.171-1.15-4.012-1.15h-1.899c-1.842,0-3.18,0.383-4.012,1.15   c-0.833,0.77-1.25,2.002-1.25,3.697v7.584c0.047,0.432,0.096,0.855,0.145,1.271c0.223,0.945,0.665,1.721,1.321,2.328   c0.897,0.832,2.163,1.248,3.797,1.248h1.899c1.841,0,3.18-0.385,4.012-1.152c0.833-0.768,1.25-2,1.25-3.695v-7.584   C134.703,115.696,134.286,114.464,133.453,113.694z M132.179,125.157c0,0.805-0.145,1.367-0.433,1.688   c-0.287,0.322-0.809,0.482-1.561,0.482h-0.337h-2.691h-0.361c-0.753,0-1.278-0.164-1.573-0.494   c-0.297-0.33-0.445-0.904-0.445-1.723v-7.854c0-0.836,0.145-1.414,0.433-1.736c0.289-0.32,0.817-0.48,1.585-0.48h0.361h2.691h0.36   c0.752,0,1.27,0.162,1.55,0.492s0.42,0.904,0.42,1.725V125.157z"></path>
	<path d="M149.717,122.479l-2.958,0.004l6.386,7.328l-3.328,0.01l-6.368-7.342c-0.144-0.146-0.216-0.4-0.216-0.76   c0-0.162,0.023-0.342,0.072-0.537c0.159-0.654,0.616-1.053,1.369-1.199h0.433h3.772h0.242c0.913-0.162,1.369-0.631,1.369-1.406   v-1.938v-0.316c-0.112-0.742-0.531-1.172-1.254-1.283h-0.265h-5.858v14.783h-2.499v-17.279h8.747c0.833,0,1.545,0.219,2.138,0.658   c0.593,0.441,0.994,0.869,1.202,1.285s0.313,0.969,0.313,1.656v2.977c0,0.623-0.185,1.215-0.554,1.775   C151.753,121.95,150.839,122.479,149.717,122.479L149.717,122.479z"></path>
	<path d="M173.269,129.823V115.04l-3.868,12.887c-0.225,0.783-0.509,1.332-0.853,1.645c-0.346,0.313-0.821,0.467-1.43,0.467   c-0.625,0-1.11-0.15-1.454-0.455c-0.345-0.303-0.628-0.855-0.853-1.656l-3.868-12.887v14.783h-2.5V115.04   c0-1.303,0.393-2.127,1.179-2.477c0.528-0.238,1.017-0.357,1.466-0.357c1.09,0,1.852,0.721,2.285,2.158l3.682,12.686l3.783-12.686   c0.416-1.438,1.186-2.158,2.308-2.158c0.433,0,0.915,0.119,1.443,0.357c0.401,0.191,0.698,0.473,0.891,0.846   c0.191,0.371,0.289,0.916,0.289,1.631v14.783H173.269L173.269,129.823z"></path>
	<path d="M186.739,115.04H185.7c-0.273,0-0.567,0.104-0.882,0.311c-0.313,0.209-0.527,0.584-0.64,1.129v0.455v2.928h8.842v2.496   h-8.842v2.316v1.084c0,0.146,0.04,0.313,0.121,0.506c0.224,0.451,0.495,0.74,0.816,0.869c0.32,0.129,0.929,0.193,1.827,0.193h6.032   v2.496h-6.705c-1.49,0-2.628-0.393-3.413-1.176c-0.785-0.785-1.176-1.936-1.176-3.457v-8.326c0-1.473,0.399-2.563,1.201-3.266   c0.801-0.703,2.083-1.055,3.844-1.055h6.321v2.496H186.739L186.739,115.04z"></path>
	<path d="M207.725,122.479l-2.959,0.004l6.385,7.328l-3.328,0.01l-6.367-7.342c-0.145-0.146-0.217-0.4-0.217-0.76   c0-0.162,0.024-0.342,0.072-0.537c0.16-0.654,0.616-1.053,1.369-1.199h0.433h3.772h0.241c0.913-0.162,1.369-0.631,1.369-1.406   v-1.938v-0.316c-0.112-0.742-0.53-1.172-1.254-1.283h-0.265h-5.858v14.783h-2.499v-17.279h8.747c0.833,0,1.545,0.219,2.138,0.658   c0.594,0.441,0.993,0.869,1.203,1.285c0.207,0.416,0.312,0.969,0.312,1.656v2.977c0,0.623-0.185,1.215-0.553,1.775   C209.76,121.95,208.845,122.479,207.725,122.479L207.725,122.479z"></path>
</g>
</svg>
