<svg id="Component_12_1" data-name="Component 12 – 1" xmlns="http://www.w3.org/2000/svg" width="547.145" height="83.084" viewBox="0 0 547.145 83.084">
  <g id="Group_702" data-name="Group 702" transform="translate(106.854 10.329)">
    <path id="Path_229" data-name="Path 229" d="M226.592,181.6H210.927v-2.858h34.582V181.6H229.843V211.16h-3.251Z" transform="translate(-210.927 -178.154)" fill="#ffffff"/>
    <path id="Path_230" data-name="Path 230" d="M273.053,178.744h3.2v14.138h31.331V178.744h3.251V211.16h-3.251V195.543H276.255V211.16h-3.2Z" transform="translate(-233.054 -178.154)" fill="#ffffff"/>
    <path id="Path_231" data-name="Path 231" d="M344.131,178.744h29.361V181.6H347.333v11.921h21.232v2.661H347.333V208.3h26.651v2.857H344.131Z" transform="translate(-258.369 -178.154)" fill="#ffffff"/>
    <path id="Path_232" data-name="Path 232" d="M425.538,178.744h3.2v14.138h31.331V178.744h3.251V211.16h-3.251V195.543H428.74V211.16h-3.2Z" transform="translate(-287.363 -178.154)" fill="#ffffff"/>
    <path id="Path_233" data-name="Path 233" d="M528.242,203.08h-26.6l-5.025,8.079h-3.6l20.247-32.415h3.6l20.246,32.415h-3.842Zm-1.626-2.611-11.626-18.72h-.1l-11.626,18.72Z" transform="translate(-311.397 -178.154)" fill="#ffffff"/>
    <path id="Path_234" data-name="Path 234" d="M570.372,178.744h5.37L591.6,207.415h.1l15.814-28.671h5.32V211.16h-3.2V181.11h-.049l-16.75,30.05h-2.512l-16.8-30.05h-.05v30.05h-3.1Z" transform="translate(-338.947 -178.154)" fill="#ffffff"/>
    <path id="Path_235" data-name="Path 235" d="M651.779,178.745h19.213c9.261,0,14.04,3.794,14.04,10.739,0,6.847-4.63,10.591-13.793,10.591H654.981V211.16h-3.2Zm19.016,18.72c7.34,0,11.035-2.561,11.035-7.931,0-5.173-3.448-7.931-11.281-7.931H654.981v15.862Z" transform="translate(-367.941 -178.154)" fill="#ffffff"/>
    <path id="Path_236" data-name="Path 236" d="M723.834,181.6H708.168v-2.858H742.75V181.6H727.085V211.16h-3.251Z" transform="translate(-388.025 -178.154)" fill="#ffffff"/>
    <path id="Path_237" data-name="Path 237" d="M763.409,194.477c0-9.359,6.8-16.65,20.395-16.65s20.394,7.291,20.394,16.65c0,9.607-6.354,16.946-20.394,16.946-13.646,0-20.395-6.847-20.395-16.946m37.538,0c0-7.783-5.665-13.794-17.143-13.794s-17.143,6.01-17.143,13.794c0,8.474,5.616,14.09,17.143,14.09,11.872,0,17.143-6.01,17.143-14.09" transform="translate(-407.7 -177.827)" fill="#ffffff"/>
    <path id="Path_238" data-name="Path 238" d="M837.013,178.744h4.828L871,206.775h.1V178.744h3.1V211.16H871l-30.838-29.706h-.05V211.16h-3.1Z" transform="translate(-433.914 -178.154)" fill="#ffffff"/>
  </g>
  <g id="Group_703" data-name="Group 703" transform="translate(106.854 58.168)">
    <path id="Path_239" data-name="Path 239" d="M210.927,252.45h5.941c3.474,0,5.263,1.5,5.263,3.925,0,1.748-.76,2.94-2.344,3.228v.041c1.644.247,2.261,1.4,2.261,3.022v3.31h-2.487v-3.269c0-1.356-.555-2.1-2.364-2.1h-3.8v5.364h-2.467Zm5.982,6.537c1.994,0,2.857-.863,2.857-2.3,0-1.356-.946-2.178-2.919-2.178h-3.454v4.481Z" transform="translate(-210.927 -252.244)" fill="#ffffff"/>
    <path id="Path_240" data-name="Path 240" d="M239.631,252.449h9.251v2.056H242.1v3.864h5.386v1.6H242.1v3.948h6.969v2.055h-9.436Z" transform="translate(-221.15 -252.244)" fill="#ffffff"/>
    <path id="Path_241" data-name="Path 241" d="M264.918,252.449h3.7l6.434,10.279h.041l-.041-10.279h2.323v13.527h-2.919l-7.216-11.47h-.021l.021,11.47h-2.323Z" transform="translate(-230.157 -252.244)" fill="#ffffff"/>
    <path id="Path_242" data-name="Path 242" d="M298.806,254.484h-4.194V252.45h10.854v2.034h-4.194v11.492h-2.467Z" transform="translate(-240.732 -252.244)" fill="#ffffff"/>
    <path id="Path_243" data-name="Path 243" d="M326.814,262.934H320.5l-1.151,3.042H316.8l5.509-13.527h3l5.489,13.527h-2.858Zm-.616-1.644-2.508-6.744h-.041l-2.528,6.744Z" transform="translate(-248.636 -252.244)" fill="#ffffff"/>
    <path id="Path_244" data-name="Path 244" d="M348.955,252.449h2.467v11.472h6.7v2.055h-9.169Z" transform="translate(-260.087 -252.244)" fill="#ffffff"/>
    <path id="Path_245" data-name="Path 245" d="M372.464,261.238h2.22c0,1.727.822,2.919,3.413,2.919,2.754,0,3.454-1.028,3.454-2.139a1.314,1.314,0,0,0-.946-1.4,19.422,19.422,0,0,0-3.31-.617,10.218,10.218,0,0,1-3.536-.966,3.028,3.028,0,0,1-1.336-2.714c0-2.467,2.118-4.193,5.654-4.193,4.009,0,5.468,1.768,5.468,4.851h-2.221c0-1.993-1.089-2.94-3.207-2.94-2.035,0-3.248.844-3.248,2.076a1.418,1.418,0,0,0,.8,1.46,15.454,15.454,0,0,0,3.289.7,12.531,12.531,0,0,1,3.577.9,2.821,2.821,0,0,1,1.46,2.673c0,2.178-1.274,4.214-5.88,4.214-4.481,0-5.653-2.365-5.653-4.831" transform="translate(-268.446 -252.13)" fill="#ffffff"/>
    <path id="Path_246" data-name="Path 246" d="M425.092,262.934H418.78l-1.151,3.042H415.08l5.509-13.527h3l5.489,13.527h-2.857Zm-.617-1.644-2.508-6.744h-.041L419.4,261.29Z" transform="translate(-283.638 -252.244)" fill="#ffffff"/>
    <path id="Path_247" data-name="Path 247" d="M446.382,254.484h-4.194V252.45h10.854v2.034h-4.194v11.492h-2.467Z" transform="translate(-293.293 -252.244)" fill="#ffffff"/>
    <path id="Path_248" data-name="Path 248" d="M488.379,260.612l-5.386-8.162h3.1l3.68,6.024h.062l3.659-6.024h2.734l-5.407,8.162v5.365h-2.446Z" transform="translate(-307.826 -252.244)" fill="#ffffff"/>
    <path id="Path_249" data-name="Path 249" d="M510.74,259.038a6.64,6.64,0,0,1,7.01-6.907c3.947,0,7.031,2.611,7.031,6.907a7.02,7.02,0,1,1-14.04,0m11.532,0a4.487,4.487,0,0,0-4.523-4.852c-2.487,0-4.5,1.83-4.5,4.852,0,3.1,2.015,4.974,4.5,4.974,2.508,0,4.523-1.871,4.523-4.974" transform="translate(-317.709 -252.13)" fill="#ffffff"/>
    <path id="Path_250" data-name="Path 250" d="M543.563,252.449h3.7l6.434,10.279h.041l-.041-10.279h2.323v13.527H553.1l-7.216-11.47h-.021l.021,11.47h-2.323Z" transform="translate(-329.399 -252.244)" fill="#ffffff"/>
    <path id="Path_251" data-name="Path 251" d="M573.927,259.243a6.735,6.735,0,0,1,6.99-7.113c3.412,0,5.982,1.83,5.982,4.913,0,.227-.021.555-.041.8h-2.2c.021-.247.021-.473.021-.659,0-1.912-1.644-3-3.721-3-2.611,0-4.544,1.953-4.544,5.078,0,3.023,1.995,4.893,4.441,4.893,2.159,0,3.762-1.254,3.762-3.083v-.308h-4.193V259.2H587v6.661h-2.056c.041-.534.1-1.5.124-2.425h-.021c-.411,1.562-1.933,2.631-4.4,2.631a6.415,6.415,0,0,1-6.722-6.825" transform="translate(-340.214 -252.13)" fill="#ffffff"/>
    <path id="Path_252" data-name="Path 252" d="M605.728,252.449h9.251v2.056h-6.784v3.864h5.386v1.6h-5.386v3.948h6.969v2.055h-9.436Z" transform="translate(-351.54 -252.244)" fill="#ffffff"/>
    <path id="Path_253" data-name="Path 253" d="M658.531,264.033v1.933a2.87,2.87,0,0,1-.576.061,6.507,6.507,0,0,1-3.741-1.274,6.362,6.362,0,0,1-3.926,1.316c-3.1,0-4.873-1.871-4.873-4.4a3.87,3.87,0,0,1,3.454-3.907,6.936,6.936,0,0,1-.535-2.3c0-1.993,1.3-3.33,3.618-3.33,2.241,0,3.495,1.315,3.495,3.145,0,1.933-1.357,3.31-3.68,3.536a16.3,16.3,0,0,0,2.528,3.166A11.369,11.369,0,0,0,656,258.237h2.056a14.531,14.531,0,0,1-2.3,4.933,4.522,4.522,0,0,0,2.466.885,1.966,1.966,0,0,0,.308-.021m-8.1.123a4.3,4.3,0,0,0,2.323-.657,18.692,18.692,0,0,1-3.1-4.091h-.082a2.118,2.118,0,0,0-1.87,2.22,2.487,2.487,0,0,0,2.734,2.528m.185-8.612a4.485,4.485,0,0,0,.452,1.891c1.644-.206,2.364-.988,2.364-2.056a1.316,1.316,0,0,0-1.4-1.4,1.4,1.4,0,0,0-1.418,1.563" transform="translate(-365.675 -252.13)" fill="#ffffff"/>
    <path id="Path_254" data-name="Path 254" d="M691.393,252.449h9.251v2.056H693.86v3.864h5.386v1.6H693.86v3.948h6.969v2.055h-9.436Z" transform="translate(-382.051 -252.244)" fill="#ffffff"/>
    <path id="Path_255" data-name="Path 255" d="M715.339,259.243a6.735,6.735,0,0,1,6.99-7.113c3.413,0,5.983,1.83,5.983,4.913,0,.227-.021.555-.041.8h-2.2c.021-.247.021-.473.021-.659,0-1.912-1.644-3-3.721-3-2.611,0-4.543,1.953-4.543,5.078,0,3.023,1.994,4.893,4.441,4.893,2.158,0,3.762-1.254,3.762-3.083v-.308h-4.194V259.2h6.578v6.661h-2.056c.041-.534.1-1.5.124-2.425h-.021c-.411,1.562-1.932,2.631-4.4,2.631a6.415,6.415,0,0,1-6.722-6.825" transform="translate(-390.579 -252.13)" fill="#ffffff"/>
    <path id="Path_256" data-name="Path 256" d="M747.14,252.449h2.467v11.472h6.7v2.055H747.14Z" transform="translate(-401.906 -252.244)" fill="#ffffff"/>
    <rect id="Rectangle_662" data-name="Rectangle 662" width="2.446" height="13.527" transform="translate(361.208 0.205)" fill="#ffffff"/>
    <path id="Path_257" data-name="Path 257" d="M787.658,252.449h3.7l6.434,10.279h.041l-.041-10.279h2.323v13.527H797.2l-7.216-11.47h-.021l.021,11.47h-2.323Z" transform="translate(-416.336 -252.244)" fill="#ffffff"/>
    <path id="Path_258" data-name="Path 258" d="M821.546,254.484h-4.194V252.45h10.854v2.034h-4.194v11.492h-2.467Z" transform="translate(-426.912 -252.244)" fill="#ffffff"/>
    <path id="Path_259" data-name="Path 259" d="M842.608,259.038a6.64,6.64,0,0,1,7.01-6.907c3.947,0,7.031,2.611,7.031,6.907a7.02,7.02,0,1,1-14.041,0m11.532,0a4.487,4.487,0,0,0-4.522-4.852c-2.487,0-4.5,1.83-4.5,4.852,0,3.1,2.015,4.974,4.5,4.974,2.508,0,4.522-1.871,4.522-4.974" transform="translate(-435.907 -252.13)" fill="#ffffff"/>
    <path id="Path_260" data-name="Path 260" d="M875.431,252.449h3.7l6.434,10.279h.041l-.041-10.279h2.323v13.527H884.97l-7.216-11.47h-.021l.021,11.47h-2.323Z" transform="translate(-447.598 -252.244)" fill="#ffffff"/>
  </g>
  <path id="Path_261" data-name="Path 261" d="M43.41,244.869h83.084V161.785H43.41Zm11.079-72.006h4.062v20.309H54.489Zm4.062,60.928H54.489V213.482h4.062Zm56.866,0h-4.062V213.482h4.062Zm0-24.371h-8.124v24.371H103.23V209.42H99.168v24.371H95.106V209.42H74.8v24.371H70.736V209.42H66.674v24.371H62.612V209.42H54.489v-4.061h60.928Zm0-8.123H54.489v-4.062h8.123V172.863h4.062v24.372h4.062V172.863H74.8v24.372H95.106V172.863h4.062v24.372h4.062V172.863h4.062v24.372h8.124Zm0-8.124h-4.062V172.864h4.062Z" transform="translate(-43.41 -161.785)" fill="#ffffff"/>
</svg>
